<svg width="9" height="10" viewBox="0 0 9 10" fill="none" xmlns="http://www.w3.org/2000/svg">
<path fill-rule="evenodd" clip-rule="evenodd" d="M1.28033 0.95041C0.987437 0.657516 0.512563 0.657516 0.21967 0.95041C-0.0732233 1.2433 -0.0732233 1.71818 0.21967 2.01107L3.20884 5.00024L0.220139 7.98893C-0.0727538 8.28183 -0.0727538 8.7567 0.220139 9.04959C0.513033 9.34249 0.987906 9.34249 1.2808 9.04959L4.2695 6.0609L7.25819 9.04959C7.55109 9.34249 8.02596 9.34249 8.31885 9.04959C8.61175 8.7567 8.61175 8.28183 8.31885 7.98893L5.33016 5.00024L8.31932 2.01107C8.61222 1.71818 8.61222 1.2433 8.31932 0.95041C8.02643 0.657516 7.55156 0.657516 7.25866 0.95041L4.2695 3.93958L1.28033 0.95041Z" fill="#FF5670"/>
</svg>
